<svg width="240" height="240" xmlns="http://www.w3.org/2000/svg">
  <path class="outerbody" d="M 110 30 Q 200 30 210 160 Q 210 210 120 210 Q 20 210 30 140 Q 60 30 110 30" fill="#6dd6fd" />
  <path class="innerbody" d="M 110 45 Q 195 35 205 160 Q 210 210 120 210 Q 25 205 40 135 Q 70 40 110 45" fill="#329fdc" />
  <circle class="outerbody" cx="100" cy="70" r="20" fill="#6dd6fd" transform="scale(1 0.8)" />
  <circle class="glow" cx="102" cy="59" r="10" fill="white" />

  <circle class="eye" r="20" fill="#6dd6fd" transform="rotate(25) translate(113 70) scale(0.6 1)" />
  <circle class="eye" r="20" fill="#053c5f" transform="rotate(25) translate(110 70) scale(0.6 1)" />
  <circle class="retina" cx="75" cy="105" r="6" fill="white" />

  <circle class="eye" r="20" fill="#6dd6fd" transform="rotate(-20) translate(128 160) scale(0.6 1)" />
  <circle class="eye" r="20" fill="#053c5f" transform="rotate(-20) translate(125 160) scale(0.6 1)" />
  <circle class="retina" cx="170" cy="105" r="6" fill="white" />

  <circle class="mouth" r="30" fill="#6dd6fd" transform="rotate(30) translate(203 88) scale(0.5 1)" />
  <circle class="mouth" r="30" fill="#053c5f" transform="rotate(30) translate(200 85) scale(0.5 1)" />
</svg>